<svg xmlns="http://www.w3.org/2000/svg" width="77" height="77" viewBox="0 0 77 77">
    <g fill="none" fill-rule="evenodd" stroke="#7CA7BC">
        <path d="M35.043 19.5h-10.19a4.353 4.353 0 0 0-4.353 4.354v10.189M20.5 43.124v10.189a4.353 4.353 0 0 0 4.353 4.354h10.19M58.666 34.043v-10.19a4.353 4.353 0 0 0-4.353-4.353h-10.19M44.123 57.667h10.19a4.353 4.353 0 0 0 4.353-4.354v-10.19M31.621 38.584h16.187M39.715 46.677V30.49"/>
        <path stroke-width="2" d="M1.034 36.925C1.904 16.233 19.384.163 40.077 1.034c20.692.87 36.76 18.35 35.89 39.043-.87 20.693-18.35 36.76-39.042 35.89-20.693-.87-36.762-18.35-35.891-39.042z"/>
    </g>
</svg>