<svg xmlns="http://www.w3.org/2000/svg" width="36" height="36" viewBox="0 0 36 36">
    <g fill="none" fill-rule="nonzero">
        <path fill="#FFF" d="M12 13.816h2.57v-2.39c0-1.024 0-2.656.817-3.642C16.205 6.72 17.373 6 19.358 6c3.232 0 4.594.455 4.594.455l-.661 3.605s-1.051-.303-2.064-.303c-.973 0-1.869.34-1.869 1.29v2.77h4.089l-.311 3.528h-3.778V29.6H14.57V17.345H12v-3.529"/>
        <g>
            <rect width="36" height="36" fill="#007AB7" rx="3"/>
            <path fill="#FFF" d="M28.329 26.446h-4.497v-6.38c0-1.651-.684-2.795-2.247-2.795-1.173 0-1.825.762-2.118 1.525-.13.253-.097.634-.097.984v6.666h-4.463s.064-11.27 0-12.286h4.463v1.905c.26-.825 1.661-2.032 3.941-2.032 2.802 0 5.018 1.778 5.018 5.588v6.825zM10.41 12.605h-.033c-1.433 0-2.378-.92-2.378-2.128 0-1.206.977-2.126 2.443-2.126 1.433 0 2.346.92 2.379 2.126 0 1.207-.946 2.128-2.411 2.128zM8.52 14.16h3.974v12.285H8.521V14.16z"/>
        </g>
    </g>
</svg>