<svg xmlns="http://www.w3.org/2000/svg" xmlns:xlink="http://www.w3.org/1999/xlink" version="1.1" id="Layer_1" x="0px" y="0px" viewBox="0 0 476.11 71.52" style="enable-background:new 0 0 476.11 71.52;" xml:space="preserve">
<style type="text/css">
	.st0{fill:#FFFFFF;}
</style>
<g>
	<g>
		<g>
			<g>
				<path class="st0" d="M176.01,41.72L176.01,41.72c0.02-0.52-0.15-0.78-0.57-0.76c-0.05,0-0.09,0.01-0.13,0.03      c-0.31,0.07-0.43,0.53-0.51,0.75h0c-0.03,0.09-0.05,0.19-0.07,0.25h-0.01l-0.03,0.09c-1.09,3.25-3.57,5.35-6.18,5.22      c-2.19-0.13-3.66-0.98-4.37-2.53c-0.04-0.09-0.95-2.26-0.95-5.44c0-6.61,1.46-9.07,5.4-9.07c1.12,0,3.75,0.55,3.75,1.6      c0,0.11-0.16,0.24-0.36,0.39c-0.44,0.36-1.11,0.89-1.11,2.13c0,1.35,0.94,2.29,2.29,2.29c1.43,0,2.2-1.32,2.2-2.56      c0-3.7-4.38-5.04-7.32-5.04c-2.41,0-9.3,1.88-9.3,10.26c0,2.56,1.69,9.2,9.39,9.2c5.13-0.2,6.85-3.5,7.78-6.37l0.06-0.18h-0.01      C175.99,41.89,176.01,41.8,176.01,41.72"/>
			</g>
			<g>
				<path class="st0" d="M220.23,33.04c0.13-0.44,1.38-2.79,3.95-2.79c1.86,0,4.08,0.73,4.08,4.21v1.42h-8.46      C219.85,34.72,219.99,33.76,220.23,33.04 M232.71,41.75L232.71,41.75c0.02-0.53-0.16-0.81-0.59-0.79      c-0.05,0-0.09,0.01-0.13,0.03c-0.32,0.08-0.45,0.55-0.53,0.78h0c-0.02,0.07-0.04,0.14-0.06,0.2h-0.01l-0.02,0.11      c-0.65,3.06-3.78,5.2-6.18,5.2c-4.56,0-5.45-2.95-5.45-8.06v-1.74h11.83c0.54,0,1.25,0.15,1.04-1.34      c-0.58-4.23-3.82-7.09-8.3-7.09c-5.73,0-9.16,5.33-9.16,10.49c0,5.37,4.81,8.98,9.3,8.98c4.34,0,7.32-2.33,8.19-6.38l0.04-0.17      h0C232.69,41.89,232.71,41.81,232.71,41.75"/>
			</g>
			<g>
				<path class="st0" d="M188.05,42.48c0,1.75-0.54,2.28-0.9,2.63l-0.07,0.07c-1.07,0.94-2,1.29-3.43,1.29      c-2.06,0-3.39-1.37-3.39-3.48c0-2.96,2.63-4.51,7.78-4.62V42.48z M195.25,44.43c-0.05-0.53-0.2-0.71-0.57-0.65      c-0.31,0.05-0.41,0.52-0.47,0.73h0.01l-0.03,0.08c-0.38,1.32-0.86,1.96-1.47,1.96c-0.78,0-0.82-0.51-0.82-1.97v-10.9      c0-1.84,0-4.63-6.36-4.63c-5.44,0-7.47,2.78-7.47,4.54c0,1.42,0.81,2.34,2.06,2.34c1.21,0,2.02-0.83,2.02-2.06      c0-1.08-0.68-1.56-1.08-1.85c-0.12-0.08-0.29-0.21-0.29-0.26c0-1.15,3.02-1.51,4.12-1.51c0.95,0,3.16,0.26,3.16,2.65v4.22      c-7.16,0.03-11.35,2.49-11.49,6.77c0,2.99,1.95,4.63,5.5,4.63c2.48,0,4.63-0.96,6.12-2.68c0.4,1.71,1.46,2.68,3.04,2.68      c2.16,0,3.89-1.67,4.03-3.88l0.01-0.15L195.25,44.43z"/>
			</g>
			<g>
				<path class="st0" d="M144.58,41.41h0.02H144.58C144.58,41.41,144.58,41.41,144.58,41.41 M157.76,42.11      c0-3.08-1.41-4.64-4.87-5.36c-6.95-1.41-7.26-2.06-7.26-3.3c0-0.3,0.19-1.35,1.01-2.16c0.74-0.73,1.8-1.08,3.15-1.04      c3.08,0.15,4.34,2.57,4.86,4.57c0,0,0.01,0.04,0.03,0.1c0.13,0.72,1.26,0.77,1.26,0v-5.19l-0.01,0      c-0.01-0.33-0.15-0.5-0.44-0.54c-0.02,0-0.04,0-0.07,0c0,0-0.01,0-0.01,0c-0.31-0.04-0.53,0.39-0.64,0.58      c-0.2,0.31-0.53,0.79-0.61,0.92c-1.38-1.08-2.8-1.64-4.22-1.64c-4.99,0-6.32,3.63-6.32,5.77c0,3.88,2.46,4.47,5.31,5.15      l0.47,0.11c3.52,0.89,6.21,1.71,6.21,3.44c0,0.84-0.32,1.58-0.83,2.18l0,0l-0.08,0.09c-0.87,0.93-2.19,1.51-3.46,1.51      c-3.16,0-5.62-2.17-6.58-5.8l-0.03-0.1l0,0c-0.06-0.21-0.15-0.67-0.46-0.72c-0.08-0.01-0.13-0.01-0.17,0.01      c-0.29,0.01-0.4,0.24-0.45,0.73h0c-0.03,0.21-0.02,0.3-0.02,0.3v5.93l0,0c-0.01,0.52,0.1,0.77,0.49,0.78      c0.23,0.01,0.45-0.33,0.56-0.56c0.14-0.23,0.85-1.39,0.97-1.59c1.34,1.4,3.33,2.24,5.4,2.24c1.93,0,3.68-0.64,4.94-1.8l0.1-0.11      l0,0C157.1,45.48,157.76,43.93,157.76,42.11"/>
			</g>
			<g>
				<path class="st0" d="M105.19,47.06c-0.84-0.29-1.48-1.28-1.5-1.79c-0.02-0.51-0.53-23.02-0.53-23.02      c-0.02-1.17,0.03-2.01-0.28-2.13c-0.38-0.14-1.97-0.11-2.39-0.11c-1.02,0-1.77-0.03-1.95,0.19c-0.19,0.23-0.56,1.03-0.98,2.13      l-2.06,4.58c-0.53,1.04-1.44,2.81-1.98,3.84l-3.13,6.05c-0.53,1.04-1.43,1.05-1.99,0.02l-3.26-5.99      c-0.56-1.02-1.47-2.7-2.03-3.72l-2.29-4.84c-0.46-1.07-0.69-1.9-0.91-2.1c-0.19-0.17-1.01-0.17-2.17-0.17h-2.74      c-1.36,0-1.97,0.01-1.88,0.59c0.05,0.32,0.52,0.41,0.73,0.46C74.7,21.31,75,22.34,75,22.85c0,0.51-0.02,21.01-0.11,21.91      c-0.02,0.15-0.04,0.31-0.08,0.47c-0.01,0.01-0.03,0.02-0.03,0.04c-0.16,0.87-0.65,1.55-1.49,1.79      c-0.21,0.06-0.68,0.15-0.73,0.46c-0.09,0.57,0.54,0.59,1.9,0.59l0.92,0c0.07,0.01,0.15,0.01,0.24,0.01c0,0,0.01-0.01,0.02-0.01      h1.08l2.25,0c1.36,0,1.99-0.02,1.9-0.59c-0.05-0.31-0.52-0.41-0.73-0.46c-0.84-0.24-1.19-0.77-1.5-1.79c0,0,0-0.01,0-0.02      c-0.15-0.66-0.22-1.55-0.22-1.55c-0.04-1.17-0.07-3.07-0.06-4.24l0-0.36c0.01-1.17,0.04-3.07,0.07-4.24l0.11-4.59      c0.03-1.16,0.5-1.28,1.05-0.25l3.03,5.63c0.55,1.03,3.46,6.52,3.98,7.56c0.44,0.88,0.53,1.22,1.9,1.23      c1.53,0.02,1.53-0.4,2.15-1.75c0.46-0.99,6.96-13.78,6.96-13.78c0.53-1.04,0.99-0.94,1.02,0.23c0,0,0.08,15.6-0.03,16.3      c-0.02,0.11-0.03,0.18-0.04,0.23c-0.22,0.67-0.68,1.19-1.39,1.38c-0.21,0.06-0.68,0.15-0.73,0.46c-0.08,0.57,0.54,0.59,1.9,0.59      l2.83-0.01l1.27,0l0.66,0.01c0.02,0,0.03,0,0.04-0.01l0.86,0c1.36,0,1.99-0.02,1.91-0.59      C105.87,47.21,105.39,47.13,105.19,47.06"/>
			</g>
			<g>
				<path class="st0" d="M133.83,46.14c-0.59,0.5-1.94,1.21-3.08,1.21c-3.54,0-4.51-2-4.51-9.3c0-3.78,0.33-7.82,4.28-7.82      c2.61,0,4.49,1.66,5.29,4.68c0.31,1.02,0.33,3.37,0.33,4.06C136.13,43.68,135.57,44.58,133.83,46.14 M142.81,47.54      c-0.03-0.22-0.35-0.32-0.58-0.38l-0.14-0.04c-0.67-0.24-1.28-1.08-1.53-1.63c-0.09-0.25-0.13-0.62-0.15-0.89      c-0.02-0.74-0.06-2.5-0.11-4.73l-0.01-18.21c0,0,0-0.29,0-0.3c0-1.35,0.13-1.28-1.57-1.34l-2.92,0h-0.09      c-1.24,0-1.81,0.02-1.73,0.54c0.04,0.28,0.47,0.37,0.66,0.42c0.92,0.26,1.37,1.1,1.4,2.14l-0.01,9.05h-0.09      c-1.25-2.42-4.04-3.01-5.51-3.01c-5.48,0-8.56,4.42-8.56,9.57c0,0.48,0.03,0.95,0.09,1.41c0.1,0.7,0.4,1.91,0.38,1.86      c1.12,3.74,3.99,6.46,7.63,6.45c2.13-0.01,4.83-0.94,6.01-2.97h0.09c0,0,0.08,0.42,0.08,1.35c0,1.27-0.09,1.26,1.32,1.26h2.88v0      l0.53,0c1.02,0,1.66-0.01,1.86-0.24c0.05-0.05,0.07-0.12,0.07-0.21C142.82,47.6,142.81,47.57,142.81,47.54"/>
			</g>
			<g>
				<path class="st0" d="M116.59,30.48c1.06,0,1.67,0.69,1.67,1.75c0,4.45-4.94,6.41-8.69,6.65      C110.23,36.2,113.45,30.48,116.59,30.48 M123.12,36.85c-0.53,1.32-1.58,3.25-2.4,4.33c-0.19,0.25-4.15,5.05-8.33,5.05      c-1.92,0-3.34-1.1-3.34-3.14c0-1.06,0.08-1.98,0.32-3.04c4.37-0.41,12.17-2.42,12.17-7.97c0-2.24-2.16-2.9-4-2.9      c-5.92,0-11.75,7.22-11.75,13.75c0,2.73,1.26,5.51,5.02,5.51c5.82,0,9.44-4.68,10.66-6.45c0.26-0.38,0.71-1.18,0.95-1.62"/>
			</g>
			<g>
				<path class="st0" d="M204.92,46.9c-1.25,0-3.21-1.08-3.95-2.52c-0.7-1.31-0.88-2.04-0.88-4.99l0-0.55      c-0.01-1.12-0.01-2.29,0.17-3.54c0.62-4.02,3.67-4.9,4.79-4.9c3.3,0,4.47,2.2,4.47,8.41C209.52,46.9,207.07,46.9,204.92,46.9       M205.41,29.05c-2.23,0-4.22,1.24-5.41,3.28l-0.01-1.23c0,0,0-0.29,0-0.29c0-1.32,0.13-1.25-1.53-1.3l-2.37,0H196      c-1.21,0-1.77,0.02-1.69,0.53c0.04,0.28,0.46,0.36,0.65,0.41c0.9,0.25,1.34,1.08,1.37,2.09v0.51l0,21.27      c0.01,1.37,0.05,1.29,1.42,1.29l2.57,0h0.08c1.21,0,1.76-0.02,1.68-0.53c-0.04-0.28-0.46-0.36-0.64-0.41      c-0.9-0.25-1.33-1.07-1.36-2.08c0,0,0.01-5.36,0.02-7.38c1.19,1.89,2.87,2.84,5.14,2.84c5.61,0,8.63-4.7,8.63-9.12      C213.86,31.68,208.81,29.05,205.41,29.05"/>
			</g>
			<g>
				<path class="st0" d="M233.03,29.27h0.16c0.19,0,0.34-0.06,0.34-0.22c0-0.14-0.1-0.23-0.32-0.23c-0.09,0-0.15,0.01-0.19,0.02      V29.27z M233.02,30.11h-0.34v-1.48c0.14-0.03,0.33-0.04,0.57-0.04c0.28,0,0.41,0.04,0.51,0.11c0.08,0.06,0.14,0.18,0.14,0.32      c0,0.16-0.13,0.29-0.31,0.34v0.02c0.14,0.05,0.22,0.16,0.27,0.36c0.05,0.23,0.07,0.32,0.11,0.37h-0.37      c-0.05-0.05-0.07-0.19-0.12-0.36c-0.03-0.16-0.12-0.23-0.31-0.23h-0.16V30.11z M232.11,29.33c0,0.66,0.49,1.18,1.16,1.18      c0.65,0,1.13-0.52,1.13-1.17c0-0.66-0.48-1.19-1.14-1.19C232.6,28.15,232.11,28.68,232.11,29.33 M234.77,29.33      c0,0.84-0.66,1.5-1.52,1.5c-0.85,0-1.52-0.66-1.52-1.5c0-0.82,0.68-1.48,1.52-1.48C234.11,27.85,234.77,28.51,234.77,29.33"/>
			</g>
		</g>
		<g>
			<g>
				<path class="st0" d="M249.5,48.21v-24.4h7.39v17.96h9.25v6.44H249.5z"/>
			</g>
			<g>
				<path class="st0" d="M269.11,48.21v-24.4h7.39v24.4H269.11z"/>
			</g>
			<g>
				<path class="st0" d="M286.81,48.21l-9-24.4h8.38l5.27,16.42l5.27-16.42h8.38l-9,24.4H286.81z"/>
			</g>
			<g>
				<path class="st0" d="M306.42,48.21v-24.4h18.51v6.44h-11.12v2.41h10.86v6.44h-10.86v2.67h11.12v6.44H306.42z"/>
			</g>
			<g>
				<path class="st0" d="M328.44,39.14l-0.99-15.33h7.83l-0.91,15.33H328.44z M327.52,44.73c0-2.12,1.76-3.91,3.88-3.91      c2.12,0,3.88,1.79,3.88,3.91c0,2.08-1.76,3.88-3.88,3.88C329.28,48.61,327.52,46.82,327.52,44.73z"/>
			</g>
		</g>
		<g>
			<path class="st0" d="M342.59,55.76H239.98v-40h102.61V55.76z M242.65,53.09h97.28V18.42h-97.28V53.09z"/>
		</g>
	</g>
	<g>
		<path class="st0" d="M58.08,45.09h-8.35l-1.38,3.52h-2.81l6.76-17.02h3.19l6.76,17.02h-2.81L58.08,45.09z M50.47,42.82h6.87    l-3.45-9.01L50.47,42.82z"/>
	</g>
	<g>
		<path class="st0" d="M354.13,31.18h11.43v2.25h-8.88v4.98h8.7v2.25h-8.7v5.31h8.88v2.25h-11.43V31.18z"/>
		<path class="st0" d="M366.99,31.18h2.91l5.44,14.24l5.46-14.24h2.91l-6.76,17.02h-3.19L366.99,31.18z"/>
		<path class="st0" d="M385.75,31.18h11.43v2.25h-8.88v4.98h8.7v2.25h-8.7v5.31h8.88v2.25h-11.43V31.18z"/>
		<path class="st0" d="M402.93,35.14v13.07h-2.55V31.18h2.63l9.27,12.76V31.18h2.55v17.02h-2.48L402.93,35.14z"/>
		<path class="st0" d="M422.76,33.43h-5.28v-2.25h13.09v2.25h-5.26v14.78h-2.55V33.43z"/>
	</g>
</g>
</svg>