<svg xmlns="http://www.w3.org/2000/svg" xmlns:xlink="http://www.w3.org/1999/xlink" width="280" height="120" viewBox="0 0 280 120">
    <defs>
        <path id="b" d="M260 34v63a3 3 0 0 1-3 3H3a3 3 0 0 1-3-3V34a3 3 0 0 1 3-3h254a3 3 0 0 1 3 3zM143 0h27a3 3 0 0 1 3 3v28h-33V3a3 3 0 0 1 3-3z"/>
        <filter id="a" width="112.3%" height="132%" x="-6.2%" y="-14%" filterUnits="objectBoundingBox">
            <feOffset dy="2" in="SourceAlpha" result="shadowOffsetOuter1"/>
            <feGaussianBlur in="shadowOffsetOuter1" result="shadowBlurOuter1" stdDeviation="5"/>
            <feColorMatrix in="shadowBlurOuter1" values="0 0 0 0 0 0 0 0 0 0 0 0 0 0 0 0 0 0 0.2 0"/>
        </filter>
    </defs>
    <g fill="none" fill-rule="evenodd" transform="translate(10 8)">
        <use fill="#000" filter="url(#a)" xlink:href="#b"/>
        <use fill="#FFF" xlink:href="#b"/>
    </g>
</svg>