<svg xmlns="http://www.w3.org/2000/svg" width="36" height="36" viewBox="0 0 36 36">
    <g fill="none" fill-rule="nonzero">
        <path fill="#FFF" d="M12 13.816h2.57v-2.39c0-1.024 0-2.656.817-3.642C16.205 6.72 17.373 6 19.358 6c3.232 0 4.594.455 4.594.455l-.661 3.605s-1.051-.303-2.064-.303c-.973 0-1.869.34-1.869 1.29v2.77h4.089l-.311 3.528h-3.778V29.6H14.57V17.345H12v-3.529"/>
        <g>
            <rect width="36" height="36" fill="#78C2F5" rx="3"/>
            <path fill="#FFF" d="M28.383 11.113a8.728 8.728 0 0 1-2.392.621c.862-.497 1.531-1.274 1.818-2.206-.797.466-1.69.777-2.646.963-.734-.777-1.818-1.243-3.03-1.243-2.295 0-4.145 1.771-4.145 3.978 0 .31.032.59.096.9-3.444-.186-6.537-1.74-8.578-4.163-.351.59-.574 1.274-.574 1.988 0 1.399.734 2.611 1.849 3.325a4.816 4.816 0 0 1-1.88-.497v.032c0 1.926 1.434 3.542 3.347 3.915-.35.093-.733.123-1.116.123-.255 0-.51-.03-.765-.061.542 1.585 2.073 2.734 3.89 2.765a8.672 8.672 0 0 1-5.166 1.678c-.35 0-.67 0-.988-.031 1.817 1.119 4.017 1.771 6.377 1.771 7.654 0 11.83-6.06 11.83-11.31v-.497a8.54 8.54 0 0 0 2.073-2.051"/>
        </g>
    </g>
</svg>